<?xml version="1.0" encoding="UTF-8" ?>
<svg version="1.1" width="32" height="32" xmlns="http://www.w3.org/2000/svg">
<rect x="10" y="0" width="1" height="1" fill="#253140" />
<rect x="11" y="0" width="1" height="1" fill="#253140" />
<rect x="12" y="0" width="1" height="1" fill="#253140" />
<rect x="19" y="0" width="1" height="1" fill="#253140" />
<rect x="20" y="0" width="1" height="1" fill="#253140" />
<rect x="21" y="0" width="1" height="1" fill="#253140" />
<rect x="10" y="1" width="1" height="1" fill="#253140" />
<rect x="11" y="1" width="1" height="1" fill="#7C8788" />
<rect x="12" y="1" width="1" height="1" fill="#253140" />
<rect x="19" y="1" width="1" height="1" fill="#253140" />
<rect x="20" y="1" width="1" height="1" fill="#7C8788" />
<rect x="21" y="1" width="1" height="1" fill="#253140" />
<rect x="10" y="2" width="1" height="1" fill="#253140" />
<rect x="11" y="2" width="1" height="1" fill="#253140" />
<rect x="12" y="2" width="1" height="1" fill="#253140" />
<rect x="19" y="2" width="1" height="1" fill="#253140" />
<rect x="20" y="2" width="1" height="1" fill="#253140" />
<rect x="21" y="2" width="1" height="1" fill="#253140" />
<rect x="11" y="3" width="1" height="1" fill="#253140" />
<rect x="20" y="3" width="1" height="1" fill="#253140" />
<rect x="10" y="4" width="1" height="1" fill="#253140" />
<rect x="11" y="4" width="1" height="1" fill="#253140" />
<rect x="12" y="4" width="1" height="1" fill="#253140" />
<rect x="13" y="4" width="1" height="1" fill="#253140" />
<rect x="14" y="4" width="1" height="1" fill="#253140" />
<rect x="15" y="4" width="1" height="1" fill="#253140" />
<rect x="16" y="4" width="1" height="1" fill="#253140" />
<rect x="17" y="4" width="1" height="1" fill="#253140" />
<rect x="18" y="4" width="1" height="1" fill="#253140" />
<rect x="19" y="4" width="1" height="1" fill="#253140" />
<rect x="20" y="4" width="1" height="1" fill="#253140" />
<rect x="21" y="4" width="1" height="1" fill="#253140" />
<rect x="9" y="5" width="1" height="1" fill="#253140" />
<rect x="10" y="5" width="1" height="1" fill="#727E8C" />
<rect x="11" y="5" width="1" height="1" fill="#727E8C" />
<rect x="12" y="5" width="1" height="1" fill="#7C8788" />
<rect x="13" y="5" width="1" height="1" fill="#7C8788" />
<rect x="14" y="5" width="1" height="1" fill="#7C8788" />
<rect x="15" y="5" width="1" height="1" fill="#7C8788" />
<rect x="16" y="5" width="1" height="1" fill="#7C8788" />
<rect x="17" y="5" width="1" height="1" fill="#7C8788" />
<rect x="18" y="5" width="1" height="1" fill="#7C8788" />
<rect x="19" y="5" width="1" height="1" fill="#7C8788" />
<rect x="20" y="5" width="1" height="1" fill="#7C8788" />
<rect x="21" y="5" width="1" height="1" fill="#7C8788" />
<rect x="22" y="5" width="1" height="1" fill="#253140" />
<rect x="8" y="6" width="1" height="1" fill="#253140" />
<rect x="9" y="6" width="1" height="1" fill="#253140" />
<rect x="10" y="6" width="1" height="1" fill="#727E8C" />
<rect x="11" y="6" width="1" height="1" fill="#727E8C" />
<rect x="12" y="6" width="1" height="1" fill="#727E8C" />
<rect x="13" y="6" width="1" height="1" fill="#727E8C" />
<rect x="14" y="6" width="1" height="1" fill="#727E8C" />
<rect x="15" y="6" width="1" height="1" fill="#7C8788" />
<rect x="16" y="6" width="1" height="1" fill="#7C8788" />
<rect x="17" y="6" width="1" height="1" fill="#7C8788" />
<rect x="18" y="6" width="1" height="1" fill="#7C8788" />
<rect x="19" y="6" width="1" height="1" fill="#7C8788" />
<rect x="20" y="6" width="1" height="1" fill="#7C8788" />
<rect x="21" y="6" width="1" height="1" fill="#7C8788" />
<rect x="22" y="6" width="1" height="1" fill="#253140" />
<rect x="23" y="6" width="1" height="1" fill="#253140" />
<rect x="8" y="7" width="1" height="1" fill="#253140" />
<rect x="9" y="7" width="1" height="1" fill="#444F55" />
<rect x="10" y="7" width="1" height="1" fill="#253140" />
<rect x="11" y="7" width="1" height="1" fill="#253140" />
<rect x="12" y="7" width="1" height="1" fill="#253140" />
<rect x="13" y="7" width="1" height="1" fill="#253140" />
<rect x="14" y="7" width="1" height="1" fill="#727E8C" />
<rect x="15" y="7" width="1" height="1" fill="#727E8C" />
<rect x="16" y="7" width="1" height="1" fill="#727E8C" />
<rect x="17" y="7" width="1" height="1" fill="#727E8C" />
<rect x="18" y="7" width="1" height="1" fill="#253140" />
<rect x="19" y="7" width="1" height="1" fill="#253140" />
<rect x="20" y="7" width="1" height="1" fill="#253140" />
<rect x="21" y="7" width="1" height="1" fill="#253140" />
<rect x="22" y="7" width="1" height="1" fill="#7C8788" />
<rect x="23" y="7" width="1" height="1" fill="#253140" />
<rect x="7" y="8" width="1" height="1" fill="#253140" />
<rect x="8" y="8" width="1" height="1" fill="#444F55" />
<rect x="9" y="8" width="1" height="1" fill="#727E8C" />
<rect x="10" y="8" width="1" height="1" fill="#727E8C" />
<rect x="11" y="8" width="1" height="1" fill="#727E8C" />
<rect x="12" y="8" width="1" height="1" fill="#727E8C" />
<rect x="13" y="8" width="1" height="1" fill="#727E8C" />
<rect x="14" y="8" width="1" height="1" fill="#253140" />
<rect x="15" y="8" width="1" height="1" fill="#253140" />
<rect x="16" y="8" width="1" height="1" fill="#253140" />
<rect x="17" y="8" width="1" height="1" fill="#253140" />
<rect x="18" y="8" width="1" height="1" fill="#727E8C" />
<rect x="19" y="8" width="1" height="1" fill="#7C8788" />
<rect x="20" y="8" width="1" height="1" fill="#7C8788" />
<rect x="21" y="8" width="1" height="1" fill="#7C8788" />
<rect x="22" y="8" width="1" height="1" fill="#7C8788" />
<rect x="23" y="8" width="1" height="1" fill="#7C8788" />
<rect x="24" y="8" width="1" height="1" fill="#253140" />
<rect x="7" y="9" width="1" height="1" fill="#253140" />
<rect x="8" y="9" width="1" height="1" fill="#444F55" />
<rect x="9" y="9" width="1" height="1" fill="#727E8C" />
<rect x="10" y="9" width="1" height="1" fill="#253140" />
<rect x="11" y="9" width="1" height="1" fill="#253140" />
<rect x="12" y="9" width="1" height="1" fill="#253140" />
<rect x="13" y="9" width="1" height="1" fill="#727E8C" />
<rect x="14" y="9" width="1" height="1" fill="#727E8C" />
<rect x="15" y="9" width="1" height="1" fill="#727E8C" />
<rect x="16" y="9" width="1" height="1" fill="#727E8C" />
<rect x="17" y="9" width="1" height="1" fill="#727E8C" />
<rect x="18" y="9" width="1" height="1" fill="#727E8C" />
<rect x="19" y="9" width="1" height="1" fill="#727E8C" />
<rect x="20" y="9" width="1" height="1" fill="#727E8C" />
<rect x="21" y="9" width="1" height="1" fill="#7C8788" />
<rect x="22" y="9" width="1" height="1" fill="#7C8788" />
<rect x="23" y="9" width="1" height="1" fill="#7C8788" />
<rect x="24" y="9" width="1" height="1" fill="#253140" />
<rect x="6" y="10" width="1" height="1" fill="#253140" />
<rect x="7" y="10" width="1" height="1" fill="#444F55" />
<rect x="8" y="10" width="1" height="1" fill="#444F55" />
<rect x="9" y="10" width="1" height="1" fill="#253140" />
<rect x="10" y="10" width="1" height="1" fill="#3D444D" />
<rect x="11" y="10" width="1" height="1" fill="#3D444D" />
<rect x="12" y="10" width="1" height="1" fill="#3D444D" />
<rect x="13" y="10" width="1" height="1" fill="#253140" />
<rect x="14" y="10" width="1" height="1" fill="#727E8C" />
<rect x="15" y="10" width="1" height="1" fill="#727E8C" />
<rect x="16" y="10" width="1" height="1" fill="#727E8C" />
<rect x="17" y="10" width="1" height="1" fill="#727E8C" />
<rect x="18" y="10" width="1" height="1" fill="#727E8C" />
<rect x="19" y="10" width="1" height="1" fill="#727E8C" />
<rect x="20" y="10" width="1" height="1" fill="#727E8C" />
<rect x="21" y="10" width="1" height="1" fill="#727E8C" />
<rect x="22" y="10" width="1" height="1" fill="#7C8788" />
<rect x="23" y="10" width="1" height="1" fill="#7C8788" />
<rect x="24" y="10" width="1" height="1" fill="#7C8788" />
<rect x="25" y="10" width="1" height="1" fill="#253140" />
<rect x="6" y="11" width="1" height="1" fill="#253140" />
<rect x="7" y="11" width="1" height="1" fill="#444F55" />
<rect x="8" y="11" width="1" height="1" fill="#253140" />
<rect x="9" y="11" width="1" height="1" fill="#3D444D" />
<rect x="10" y="11" width="1" height="1" fill="#FFCBCB" />
<rect x="11" y="11" width="1" height="1" fill="#AC3232" />
<rect x="12" y="11" width="1" height="1" fill="#3D444D" />
<rect x="13" y="11" width="1" height="1" fill="#3D444D" />
<rect x="14" y="11" width="1" height="1" fill="#253140" />
<rect x="15" y="11" width="1" height="1" fill="#727E8C" />
<rect x="16" y="11" width="1" height="1" fill="#727E8C" />
<rect x="17" y="11" width="1" height="1" fill="#727E8C" />
<rect x="18" y="11" width="1" height="1" fill="#727E8C" />
<rect x="19" y="11" width="1" height="1" fill="#727E8C" />
<rect x="20" y="11" width="1" height="1" fill="#727E8C" />
<rect x="21" y="11" width="1" height="1" fill="#727E8C" />
<rect x="22" y="11" width="1" height="1" fill="#727E8C" />
<rect x="23" y="11" width="1" height="1" fill="#7C8788" />
<rect x="24" y="11" width="1" height="1" fill="#7C8788" />
<rect x="25" y="11" width="1" height="1" fill="#253140" />
<rect x="6" y="12" width="1" height="1" fill="#253140" />
<rect x="7" y="12" width="1" height="1" fill="#253140" />
<rect x="8" y="12" width="1" height="1" fill="#3D444D" />
<rect x="9" y="12" width="1" height="1" fill="#FFCBCB" />
<rect x="10" y="12" width="1" height="1" fill="#FFCBCB" />
<rect x="11" y="12" width="1" height="1" fill="#AC3232" />
<rect x="12" y="12" width="1" height="1" fill="#E17A7A" />
<rect x="13" y="12" width="1" height="1" fill="#3D444D" />
<rect x="14" y="12" width="1" height="1" fill="#3D444D" />
<rect x="15" y="12" width="1" height="1" fill="#253140" />
<rect x="16" y="12" width="1" height="1" fill="#727E8C" />
<rect x="17" y="12" width="1" height="1" fill="#727E8C" />
<rect x="18" y="12" width="1" height="1" fill="#727E8C" />
<rect x="19" y="12" width="1" height="1" fill="#727E8C" />
<rect x="20" y="12" width="1" height="1" fill="#727E8C" />
<rect x="21" y="12" width="1" height="1" fill="#727E8C" />
<rect x="22" y="12" width="1" height="1" fill="#727E8C" />
<rect x="23" y="12" width="1" height="1" fill="#727E8C" />
<rect x="24" y="12" width="1" height="1" fill="#7C8788" />
<rect x="25" y="12" width="1" height="1" fill="#253140" />
<rect x="5" y="13" width="1" height="1" fill="#253140" />
<rect x="6" y="13" width="1" height="1" fill="#444F55" />
<rect x="7" y="13" width="1" height="1" fill="#253140" />
<rect x="8" y="13" width="1" height="1" fill="#3D444D" />
<rect x="9" y="13" width="1" height="1" fill="#AC3232" />
<rect x="10" y="13" width="1" height="1" fill="#AC3232" />
<rect x="11" y="13" width="1" height="1" fill="#AC3232" />
<rect x="12" y="13" width="1" height="1" fill="#622626" />
<rect x="13" y="13" width="1" height="1" fill="#622626" />
<rect x="14" y="13" width="1" height="1" fill="#3D444D" />
<rect x="15" y="13" width="1" height="1" fill="#253140" />
<rect x="16" y="13" width="1" height="1" fill="#727E8C" />
<rect x="17" y="13" width="1" height="1" fill="#727E8C" />
<rect x="18" y="13" width="1" height="1" fill="#727E8C" />
<rect x="19" y="13" width="1" height="1" fill="#727E8C" />
<rect x="20" y="13" width="1" height="1" fill="#727E8C" />
<rect x="21" y="13" width="1" height="1" fill="#727E8C" />
<rect x="22" y="13" width="1" height="1" fill="#727E8C" />
<rect x="23" y="13" width="1" height="1" fill="#727E8C" />
<rect x="24" y="13" width="1" height="1" fill="#7C8788" />
<rect x="25" y="13" width="1" height="1" fill="#7C8788" />
<rect x="26" y="13" width="1" height="1" fill="#253140" />
<rect x="5" y="14" width="1" height="1" fill="#253140" />
<rect x="6" y="14" width="1" height="1" fill="#444F55" />
<rect x="7" y="14" width="1" height="1" fill="#253140" />
<rect x="8" y="14" width="1" height="1" fill="#3D444D" />
<rect x="9" y="14" width="1" height="1" fill="#AC3232" />
<rect x="10" y="14" width="1" height="1" fill="#AC3232" />
<rect x="11" y="14" width="1" height="1" fill="#AC3232" />
<rect x="12" y="14" width="1" height="1" fill="#622626" />
<rect x="13" y="14" width="1" height="1" fill="#3D444D" />
<rect x="14" y="14" width="1" height="1" fill="#3D444D" />
<rect x="15" y="14" width="1" height="1" fill="#253140" />
<rect x="16" y="14" width="1" height="1" fill="#727E8C" />
<rect x="17" y="14" width="1" height="1" fill="#727E8C" />
<rect x="18" y="14" width="1" height="1" fill="#727E8C" />
<rect x="19" y="14" width="1" height="1" fill="#727E8C" />
<rect x="20" y="14" width="1" height="1" fill="#727E8C" />
<rect x="21" y="14" width="1" height="1" fill="#727E8C" />
<rect x="22" y="14" width="1" height="1" fill="#727E8C" />
<rect x="23" y="14" width="1" height="1" fill="#727E8C" />
<rect x="24" y="14" width="1" height="1" fill="#727E8C" />
<rect x="25" y="14" width="1" height="1" fill="#7C8788" />
<rect x="26" y="14" width="1" height="1" fill="#253140" />
<rect x="4" y="15" width="1" height="1" fill="#253140" />
<rect x="5" y="15" width="1" height="1" fill="#444F55" />
<rect x="6" y="15" width="1" height="1" fill="#444F55" />
<rect x="7" y="15" width="1" height="1" fill="#444F55" />
<rect x="8" y="15" width="1" height="1" fill="#253140" />
<rect x="9" y="15" width="1" height="1" fill="#3D444D" />
<rect x="10" y="15" width="1" height="1" fill="#622626" />
<rect x="11" y="15" width="1" height="1" fill="#622626" />
<rect x="12" y="15" width="1" height="1" fill="#3D444D" />
<rect x="13" y="15" width="1" height="1" fill="#3D444D" />
<rect x="14" y="15" width="1" height="1" fill="#253140" />
<rect x="15" y="15" width="1" height="1" fill="#727E8C" />
<rect x="16" y="15" width="1" height="1" fill="#727E8C" />
<rect x="17" y="15" width="1" height="1" fill="#727E8C" />
<rect x="18" y="15" width="1" height="1" fill="#727E8C" />
<rect x="19" y="15" width="1" height="1" fill="#727E8C" />
<rect x="20" y="15" width="1" height="1" fill="#727E8C" />
<rect x="21" y="15" width="1" height="1" fill="#727E8C" />
<rect x="22" y="15" width="1" height="1" fill="#727E8C" />
<rect x="23" y="15" width="1" height="1" fill="#727E8C" />
<rect x="24" y="15" width="1" height="1" fill="#727E8C" />
<rect x="25" y="15" width="1" height="1" fill="#7C8788" />
<rect x="26" y="15" width="1" height="1" fill="#7C8788" />
<rect x="27" y="15" width="1" height="1" fill="#253140" />
<rect x="4" y="16" width="1" height="1" fill="#253140" />
<rect x="5" y="16" width="1" height="1" fill="#444F55" />
<rect x="6" y="16" width="1" height="1" fill="#444F55" />
<rect x="7" y="16" width="1" height="1" fill="#444F55" />
<rect x="8" y="16" width="1" height="1" fill="#444F55" />
<rect x="9" y="16" width="1" height="1" fill="#253140" />
<rect x="10" y="16" width="1" height="1" fill="#3D444D" />
<rect x="11" y="16" width="1" height="1" fill="#3D444D" />
<rect x="12" y="16" width="1" height="1" fill="#3D444D" />
<rect x="13" y="16" width="1" height="1" fill="#253140" />
<rect x="14" y="16" width="1" height="1" fill="#727E8C" />
<rect x="15" y="16" width="1" height="1" fill="#727E8C" />
<rect x="16" y="16" width="1" height="1" fill="#727E8C" />
<rect x="17" y="16" width="1" height="1" fill="#727E8C" />
<rect x="18" y="16" width="1" height="1" fill="#727E8C" />
<rect x="19" y="16" width="1" height="1" fill="#727E8C" />
<rect x="20" y="16" width="1" height="1" fill="#727E8C" />
<rect x="21" y="16" width="1" height="1" fill="#727E8C" />
<rect x="22" y="16" width="1" height="1" fill="#727E8C" />
<rect x="23" y="16" width="1" height="1" fill="#727E8C" />
<rect x="24" y="16" width="1" height="1" fill="#727E8C" />
<rect x="25" y="16" width="1" height="1" fill="#727E8C" />
<rect x="26" y="16" width="1" height="1" fill="#727E8C" />
<rect x="27" y="16" width="1" height="1" fill="#253140" />
<rect x="3" y="17" width="1" height="1" fill="#253140" />
<rect x="4" y="17" width="1" height="1" fill="#253140" />
<rect x="5" y="17" width="1" height="1" fill="#444F55" />
<rect x="6" y="17" width="1" height="1" fill="#444F55" />
<rect x="7" y="17" width="1" height="1" fill="#444F55" />
<rect x="8" y="17" width="1" height="1" fill="#444F55" />
<rect x="9" y="17" width="1" height="1" fill="#444F55" />
<rect x="10" y="17" width="1" height="1" fill="#253140" />
<rect x="11" y="17" width="1" height="1" fill="#253140" />
<rect x="12" y="17" width="1" height="1" fill="#253140" />
<rect x="13" y="17" width="1" height="1" fill="#444F55" />
<rect x="14" y="17" width="1" height="1" fill="#727E8C" />
<rect x="15" y="17" width="1" height="1" fill="#727E8C" />
<rect x="16" y="17" width="1" height="1" fill="#727E8C" />
<rect x="17" y="17" width="1" height="1" fill="#727E8C" />
<rect x="18" y="17" width="1" height="1" fill="#727E8C" />
<rect x="19" y="17" width="1" height="1" fill="#727E8C" />
<rect x="20" y="17" width="1" height="1" fill="#727E8C" />
<rect x="21" y="17" width="1" height="1" fill="#727E8C" />
<rect x="22" y="17" width="1" height="1" fill="#727E8C" />
<rect x="23" y="17" width="1" height="1" fill="#727E8C" />
<rect x="24" y="17" width="1" height="1" fill="#727E8C" />
<rect x="25" y="17" width="1" height="1" fill="#727E8C" />
<rect x="26" y="17" width="1" height="1" fill="#727E8C" />
<rect x="27" y="17" width="1" height="1" fill="#253140" />
<rect x="28" y="17" width="1" height="1" fill="#253140" />
<rect x="5" y="18" width="1" height="1" fill="#253140" />
<rect x="6" y="18" width="1" height="1" fill="#253140" />
<rect x="7" y="18" width="1" height="1" fill="#253140" />
<rect x="8" y="18" width="1" height="1" fill="#444F55" />
<rect x="9" y="18" width="1" height="1" fill="#444F55" />
<rect x="10" y="18" width="1" height="1" fill="#444F55" />
<rect x="11" y="18" width="1" height="1" fill="#444F55" />
<rect x="12" y="18" width="1" height="1" fill="#444F55" />
<rect x="13" y="18" width="1" height="1" fill="#444F55" />
<rect x="14" y="18" width="1" height="1" fill="#444F55" />
<rect x="15" y="18" width="1" height="1" fill="#444F55" />
<rect x="16" y="18" width="1" height="1" fill="#727E8C" />
<rect x="17" y="18" width="1" height="1" fill="#727E8C" />
<rect x="18" y="18" width="1" height="1" fill="#727E8C" />
<rect x="19" y="18" width="1" height="1" fill="#727E8C" />
<rect x="20" y="18" width="1" height="1" fill="#727E8C" />
<rect x="21" y="18" width="1" height="1" fill="#727E8C" />
<rect x="22" y="18" width="1" height="1" fill="#727E8C" />
<rect x="23" y="18" width="1" height="1" fill="#727E8C" />
<rect x="24" y="18" width="1" height="1" fill="#253140" />
<rect x="25" y="18" width="1" height="1" fill="#253140" />
<rect x="26" y="18" width="1" height="1" fill="#253140" />
<rect x="8" y="19" width="1" height="1" fill="#253140" />
<rect x="9" y="19" width="1" height="1" fill="#253140" />
<rect x="10" y="19" width="1" height="1" fill="#253140" />
<rect x="11" y="19" width="1" height="1" fill="#253140" />
<rect x="12" y="19" width="1" height="1" fill="#253140" />
<rect x="13" y="19" width="1" height="1" fill="#253140" />
<rect x="14" y="19" width="1" height="1" fill="#444F55" />
<rect x="15" y="19" width="1" height="1" fill="#444F55" />
<rect x="16" y="19" width="1" height="1" fill="#444F55" />
<rect x="17" y="19" width="1" height="1" fill="#444F55" />
<rect x="18" y="19" width="1" height="1" fill="#444F55" />
<rect x="19" y="19" width="1" height="1" fill="#253140" />
<rect x="20" y="19" width="1" height="1" fill="#253140" />
<rect x="21" y="19" width="1" height="1" fill="#253140" />
<rect x="22" y="19" width="1" height="1" fill="#253140" />
<rect x="23" y="19" width="1" height="1" fill="#253140" />
<rect x="8" y="20" width="1" height="1" fill="#253140" />
<rect x="9" y="20" width="1" height="1" fill="#444F55" />
<rect x="10" y="20" width="1" height="1" fill="#253140" />
<rect x="12" y="20" width="1" height="1" fill="#253140" />
<rect x="13" y="20" width="1" height="1" fill="#253140" />
<rect x="14" y="20" width="1" height="1" fill="#253140" />
<rect x="15" y="20" width="1" height="1" fill="#253140" />
<rect x="16" y="20" width="1" height="1" fill="#253140" />
<rect x="17" y="20" width="1" height="1" fill="#253140" />
<rect x="18" y="20" width="1" height="1" fill="#253140" />
<rect x="19" y="20" width="1" height="1" fill="#253140" />
<rect x="21" y="20" width="1" height="1" fill="#253140" />
<rect x="22" y="20" width="1" height="1" fill="#555252" />
<rect x="23" y="20" width="1" height="1" fill="#253140" />
<rect x="7" y="21" width="1" height="1" fill="#253140" />
<rect x="8" y="21" width="1" height="1" fill="#444F55" />
<rect x="9" y="21" width="1" height="1" fill="#253140" />
<rect x="12" y="21" width="1" height="1" fill="#253140" />
<rect x="13" y="21" width="1" height="1" fill="#253140" />
<rect x="15" y="21" width="1" height="1" fill="#253140" />
<rect x="16" y="21" width="1" height="1" fill="#253140" />
<rect x="18" y="21" width="1" height="1" fill="#253140" />
<rect x="19" y="21" width="1" height="1" fill="#253140" />
<rect x="22" y="21" width="1" height="1" fill="#253140" />
<rect x="23" y="21" width="1" height="1" fill="#555252" />
<rect x="24" y="21" width="1" height="1" fill="#253140" />
<rect x="6" y="22" width="1" height="1" fill="#253140" />
<rect x="7" y="22" width="1" height="1" fill="#444F55" />
<rect x="8" y="22" width="1" height="1" fill="#253140" />
<rect x="11" y="22" width="1" height="1" fill="#253140" />
<rect x="12" y="22" width="1" height="1" fill="#253140" />
<rect x="15" y="22" width="1" height="1" fill="#253140" />
<rect x="16" y="22" width="1" height="1" fill="#253140" />
<rect x="19" y="22" width="1" height="1" fill="#253140" />
<rect x="20" y="22" width="1" height="1" fill="#253140" />
<rect x="23" y="22" width="1" height="1" fill="#253140" />
<rect x="24" y="22" width="1" height="1" fill="#727E8C" />
<rect x="25" y="22" width="1" height="1" fill="#253140" />
<rect x="5" y="23" width="1" height="1" fill="#253140" />
<rect x="6" y="23" width="1" height="1" fill="#444F55" />
<rect x="7" y="23" width="1" height="1" fill="#253140" />
<rect x="11" y="23" width="1" height="1" fill="#253140" />
<rect x="12" y="23" width="1" height="1" fill="#253140" />
<rect x="15" y="23" width="1" height="1" fill="#253140" />
<rect x="16" y="23" width="1" height="1" fill="#444F55" />
<rect x="17" y="23" width="1" height="1" fill="#253140" />
<rect x="19" y="23" width="1" height="1" fill="#253140" />
<rect x="20" y="23" width="1" height="1" fill="#253140" />
<rect x="24" y="23" width="1" height="1" fill="#253140" />
<rect x="25" y="23" width="1" height="1" fill="#727E8C" />
<rect x="26" y="23" width="1" height="1" fill="#253140" />
<rect x="4" y="24" width="1" height="1" fill="#253140" />
<rect x="5" y="24" width="1" height="1" fill="#727E8C" />
<rect x="6" y="24" width="1" height="1" fill="#253140" />
<rect x="10" y="24" width="1" height="1" fill="#253140" />
<rect x="11" y="24" width="1" height="1" fill="#253140" />
<rect x="15" y="24" width="1" height="1" fill="#253140" />
<rect x="16" y="24" width="1" height="1" fill="#444F55" />
<rect x="17" y="24" width="1" height="1" fill="#253140" />
<rect x="20" y="24" width="1" height="1" fill="#253140" />
<rect x="21" y="24" width="1" height="1" fill="#253140" />
<rect x="25" y="24" width="1" height="1" fill="#253140" />
<rect x="26" y="24" width="1" height="1" fill="#727E8C" />
<rect x="27" y="24" width="1" height="1" fill="#253140" />
<rect x="4" y="25" width="1" height="1" fill="#253140" />
<rect x="5" y="25" width="1" height="1" fill="#727E8C" />
<rect x="6" y="25" width="1" height="1" fill="#253140" />
<rect x="10" y="25" width="1" height="1" fill="#253140" />
<rect x="11" y="25" width="1" height="1" fill="#253140" />
<rect x="16" y="25" width="1" height="1" fill="#253140" />
<rect x="17" y="25" width="1" height="1" fill="#253140" />
<rect x="20" y="25" width="1" height="1" fill="#253140" />
<rect x="21" y="25" width="1" height="1" fill="#253140" />
<rect x="25" y="25" width="1" height="1" fill="#253140" />
<rect x="26" y="25" width="1" height="1" fill="#727E8C" />
<rect x="27" y="25" width="1" height="1" fill="#253140" />
<rect x="1" y="26" width="1" height="1" fill="#253140" />
<rect x="2" y="26" width="1" height="1" fill="#253140" />
<rect x="3" y="26" width="1" height="1" fill="#253140" />
<rect x="4" y="26" width="1" height="1" fill="#727E8C" />
<rect x="5" y="26" width="1" height="1" fill="#253140" />
<rect x="9" y="26" width="1" height="1" fill="#253140" />
<rect x="10" y="26" width="1" height="1" fill="#253140" />
<rect x="16" y="26" width="1" height="1" fill="#253140" />
<rect x="17" y="26" width="1" height="1" fill="#253140" />
<rect x="21" y="26" width="1" height="1" fill="#253140" />
<rect x="22" y="26" width="1" height="1" fill="#253140" />
<rect x="26" y="26" width="1" height="1" fill="#253140" />
<rect x="27" y="26" width="1" height="1" fill="#727E8C" />
<rect x="28" y="26" width="1" height="1" fill="#253140" />
<rect x="29" y="26" width="1" height="1" fill="#253140" />
<rect x="30" y="26" width="1" height="1" fill="#253140" />
<rect x="1" y="27" width="1" height="1" fill="#253140" />
<rect x="2" y="27" width="1" height="1" fill="#727E8C" />
<rect x="3" y="27" width="1" height="1" fill="#727E8C" />
<rect x="4" y="27" width="1" height="1" fill="#253140" />
<rect x="8" y="27" width="1" height="1" fill="#253140" />
<rect x="9" y="27" width="1" height="1" fill="#253140" />
<rect x="10" y="27" width="1" height="1" fill="#253140" />
<rect x="16" y="27" width="1" height="1" fill="#253140" />
<rect x="17" y="27" width="1" height="1" fill="#253140" />
<rect x="21" y="27" width="1" height="1" fill="#253140" />
<rect x="22" y="27" width="1" height="1" fill="#253140" />
<rect x="23" y="27" width="1" height="1" fill="#253140" />
<rect x="27" y="27" width="1" height="1" fill="#253140" />
<rect x="28" y="27" width="1" height="1" fill="#727E8C" />
<rect x="29" y="27" width="1" height="1" fill="#727E8C" />
<rect x="30" y="27" width="1" height="1" fill="#253140" />
<rect x="2" y="28" width="1" height="1" fill="#253140" />
<rect x="3" y="28" width="1" height="1" fill="#727E8C" />
<rect x="4" y="28" width="1" height="1" fill="#253140" />
<rect x="9" y="28" width="1" height="1" fill="#253140" />
<rect x="10" y="28" width="1" height="1" fill="#253140" />
<rect x="16" y="28" width="1" height="1" fill="#253140" />
<rect x="17" y="28" width="1" height="1" fill="#727E8C" />
<rect x="18" y="28" width="1" height="1" fill="#253140" />
<rect x="21" y="28" width="1" height="1" fill="#253140" />
<rect x="22" y="28" width="1" height="1" fill="#253140" />
<rect x="27" y="28" width="1" height="1" fill="#253140" />
<rect x="28" y="28" width="1" height="1" fill="#727E8C" />
<rect x="29" y="28" width="1" height="1" fill="#253140" />
<rect x="3" y="29" width="1" height="1" fill="#253140" />
<rect x="4" y="29" width="1" height="1" fill="#253140" />
<rect x="16" y="29" width="1" height="1" fill="#253140" />
<rect x="17" y="29" width="1" height="1" fill="#727E8C" />
<rect x="18" y="29" width="1" height="1" fill="#253140" />
<rect x="27" y="29" width="1" height="1" fill="#253140" />
<rect x="28" y="29" width="1" height="1" fill="#253140" />
<rect x="15" y="30" width="1" height="1" fill="#253140" />
<rect x="16" y="30" width="1" height="1" fill="#727E8C" />
<rect x="17" y="30" width="1" height="1" fill="#727E8C" />
<rect x="18" y="30" width="1" height="1" fill="#727E8C" />
<rect x="19" y="30" width="1" height="1" fill="#253140" />
<rect x="15" y="31" width="1" height="1" fill="#253140" />
<rect x="16" y="31" width="1" height="1" fill="#253140" />
<rect x="17" y="31" width="1" height="1" fill="#253140" />
<rect x="18" y="31" width="1" height="1" fill="#253140" />
<rect x="19" y="31" width="1" height="1" fill="#253140" />
</svg>